<svg xmlns="http://www.w3.org/2000/svg" version="1.1" xmlns:xlink="http://www.w3.org/1999/xlink" xmlns:svgjs="http://svgjs.com/svgjs" width="1440" height="560" preserveAspectRatio="none" viewBox="0 0 1440 560"><g mask="url(&quot;#SvgjsMask1011&quot;)" fill="none"><rect width="1440" height="560" x="0" y="0" fill="rgba(34, 51, 59, 1)"></rect><path d="M355.54 640.37C522.07 623.22 625.91 266.14 909.85 264.65 1193.78 263.16 1321.88 392.61 1464.15 393.45" stroke="rgba(169, 146, 125, 0.8)" stroke-width="2"></path><path d="M901.78 651.82C977.68 641.6 930.22 484.56 1145.25 465.89 1360.28 447.22 1492.76 200.72 1632.19 191.49" stroke="rgba(169, 146, 125, 0.8)" stroke-width="2"></path><path d="M809.15 620.7C937.31 607.21 987.34 348.55 1234.53 329.56 1481.72 310.57 1540.53 117.42 1659.91 111.16" stroke="rgba(169, 146, 125, 0.8)" stroke-width="2"></path><path d="M676.42 561.54C776.69 526.86 739.4 231.65 942.55 230.98 1145.7 230.31 1334.43 407.8 1474.81 410.18" stroke="rgba(169, 146, 125, 0.8)" stroke-width="2"></path><path d="M504.58 650.05C611.65 634.2 586.55 380.45 843.02 380.07 1099.49 379.69 1347.9 502.77 1519.9 503.27" stroke="rgba(169, 146, 125, 0.8)" stroke-width="2"></path></g><defs><mask id="SvgjsMask1011"><rect width="1440" height="560" fill="#ffffff"></rect></mask></defs></svg>